<mxfile host="Electron" modified="2023-12-13T12:28:30.940Z" agent="Mozilla/5.0 (Windows NT 10.0; Win64; x64) AppleWebKit/537.36 (KHTML, like Gecko) draw.io/21.6.8 Chrome/114.0.5735.289 Electron/25.5.0 Safari/537.36" etag="nyVoTvC6-cGqZoQh9F9g" version="21.6.8" type="device" pages="4">
  <diagram name="第 1 页" id="mQJt2FF1CtGDJfmDd0hI">
    <mxGraphModel dx="1702" dy="793" grid="1" gridSize="10" guides="1" tooltips="1" connect="1" arrows="1" fold="1" page="0" pageScale="1" pageWidth="827" pageHeight="1169" math="0" shadow="0">
      <root>
        <mxCell id="0" />
        <mxCell id="1" parent="0" />
        <mxCell id="FoV0frrzziVo2w9aXjBF-1" value="SZX" style="rounded=1;whiteSpace=wrap;html=1;" parent="1" vertex="1">
          <mxGeometry x="-200" y="400" width="120" height="60" as="geometry" />
        </mxCell>
        <mxCell id="FoV0frrzziVo2w9aXjBF-2" value="EHU" style="rounded=1;whiteSpace=wrap;html=1;" parent="1" vertex="1">
          <mxGeometry x="40" y="400" width="120" height="60" as="geometry" />
        </mxCell>
        <mxCell id="FoV0frrzziVo2w9aXjBF-3" value="PEK" style="rounded=1;whiteSpace=wrap;html=1;" parent="1" vertex="1">
          <mxGeometry x="280" y="400" width="120" height="60" as="geometry" />
        </mxCell>
        <mxCell id="FoV0frrzziVo2w9aXjBF-4" value="" style="curved=1;endArrow=classic;html=1;rounded=0;" parent="1" edge="1">
          <mxGeometry width="50" height="50" relative="1" as="geometry">
            <mxPoint x="-140" y="380" as="sourcePoint" />
            <mxPoint x="-40" y="330" as="targetPoint" />
            <Array as="points">
              <mxPoint x="-90" y="330" />
            </Array>
          </mxGeometry>
        </mxCell>
        <mxCell id="FoV0frrzziVo2w9aXjBF-5" value="" style="curved=1;endArrow=classic;html=1;rounded=0;" parent="1" edge="1">
          <mxGeometry width="50" height="50" relative="1" as="geometry">
            <mxPoint x="100" y="380" as="sourcePoint" />
            <mxPoint x="200" y="330" as="targetPoint" />
            <Array as="points">
              <mxPoint x="150" y="330" />
            </Array>
          </mxGeometry>
        </mxCell>
        <mxCell id="FoV0frrzziVo2w9aXjBF-6" value="" style="curved=1;endArrow=none;html=1;rounded=0;startArrow=classic;startFill=1;endFill=0;" parent="1" edge="1">
          <mxGeometry width="50" height="50" relative="1" as="geometry">
            <mxPoint x="100" y="380" as="sourcePoint" />
            <mxPoint y="330" as="targetPoint" />
            <Array as="points">
              <mxPoint x="60" y="340" />
            </Array>
          </mxGeometry>
        </mxCell>
        <mxCell id="FoV0frrzziVo2w9aXjBF-7" value="" style="curved=1;endArrow=none;html=1;rounded=0;startArrow=classic;startFill=1;endFill=0;" parent="1" edge="1">
          <mxGeometry width="50" height="50" relative="1" as="geometry">
            <mxPoint x="340" y="380" as="sourcePoint" />
            <mxPoint x="240" y="330" as="targetPoint" />
            <Array as="points">
              <mxPoint x="300" y="340" />
            </Array>
          </mxGeometry>
        </mxCell>
        <mxCell id="FoV0frrzziVo2w9aXjBF-16" value="航班ID 板箱号 航站" style="text;html=1;align=center;verticalAlign=middle;resizable=0;points=[];autosize=1;strokeColor=none;fillColor=none;" parent="1" vertex="1">
          <mxGeometry x="-190" y="310" width="130" height="30" as="geometry" />
        </mxCell>
      </root>
    </mxGraphModel>
  </diagram>
  <diagram id="E26JizVjeUOT0Fn8ZhNb" name="第 3 页">
    <mxGraphModel dx="1962" dy="1351" grid="1" gridSize="10" guides="1" tooltips="1" connect="1" arrows="1" fold="1" page="0" pageScale="1" pageWidth="827" pageHeight="1169" math="0" shadow="0">
      <root>
        <mxCell id="0" />
        <mxCell id="1" parent="0" />
        <mxCell id="5_CFMRtldblJI2udlE0o-37" style="rounded=0;orthogonalLoop=1;jettySize=auto;html=1;entryX=0.5;entryY=0;entryDx=0;entryDy=0;exitX=0.5;exitY=1;exitDx=0;exitDy=0;" parent="1" source="5_CFMRtldblJI2udlE0o-2" target="5_CFMRtldblJI2udlE0o-15" edge="1">
          <mxGeometry relative="1" as="geometry" />
        </mxCell>
        <mxCell id="5_CFMRtldblJI2udlE0o-2" value="" style="rounded=0;whiteSpace=wrap;html=1;" parent="1" vertex="1">
          <mxGeometry x="-120" y="-120" width="40" height="40" as="geometry" />
        </mxCell>
        <mxCell id="5_CFMRtldblJI2udlE0o-62" style="edgeStyle=orthogonalEdgeStyle;rounded=0;orthogonalLoop=1;jettySize=auto;html=1;" parent="1" source="5_CFMRtldblJI2udlE0o-3" target="5_CFMRtldblJI2udlE0o-13" edge="1">
          <mxGeometry relative="1" as="geometry" />
        </mxCell>
        <mxCell id="5_CFMRtldblJI2udlE0o-3" value="" style="rounded=0;whiteSpace=wrap;html=1;" parent="1" vertex="1">
          <mxGeometry x="-80" y="-120" width="40" height="40" as="geometry" />
        </mxCell>
        <mxCell id="5_CFMRtldblJI2udlE0o-23" style="rounded=0;orthogonalLoop=1;jettySize=auto;html=1;exitX=0.5;exitY=1;exitDx=0;exitDy=0;" parent="1" source="5_CFMRtldblJI2udlE0o-4" target="5_CFMRtldblJI2udlE0o-14" edge="1">
          <mxGeometry relative="1" as="geometry" />
        </mxCell>
        <mxCell id="5_CFMRtldblJI2udlE0o-4" value="" style="rounded=0;whiteSpace=wrap;html=1;" parent="1" vertex="1">
          <mxGeometry x="-40" y="-120" width="40" height="40" as="geometry" />
        </mxCell>
        <mxCell id="5_CFMRtldblJI2udlE0o-5" value="" style="rounded=0;whiteSpace=wrap;html=1;" parent="1" vertex="1">
          <mxGeometry y="-120" width="40" height="40" as="geometry" />
        </mxCell>
        <mxCell id="5_CFMRtldblJI2udlE0o-13" value="1" style="rounded=0;whiteSpace=wrap;html=1;" parent="1" vertex="1">
          <mxGeometry x="-80" width="40" height="40" as="geometry" />
        </mxCell>
        <mxCell id="5_CFMRtldblJI2udlE0o-14" value="12" style="rounded=0;whiteSpace=wrap;html=1;" parent="1" vertex="1">
          <mxGeometry x="-40" width="40" height="40" as="geometry" />
        </mxCell>
        <mxCell id="5_CFMRtldblJI2udlE0o-15" value="123" style="rounded=0;whiteSpace=wrap;html=1;" parent="1" vertex="1">
          <mxGeometry width="40" height="40" as="geometry" />
        </mxCell>
        <mxCell id="5_CFMRtldblJI2udlE0o-16" value="" style="rounded=0;whiteSpace=wrap;html=1;" parent="1" vertex="1">
          <mxGeometry x="40" width="40" height="40" as="geometry" />
        </mxCell>
        <mxCell id="5_CFMRtldblJI2udlE0o-17" value="" style="rounded=0;whiteSpace=wrap;html=1;" parent="1" vertex="1">
          <mxGeometry x="80" width="40" height="40" as="geometry" />
        </mxCell>
        <mxCell id="5_CFMRtldblJI2udlE0o-24" value="12" style="rounded=0;whiteSpace=wrap;html=1;" parent="1" vertex="1">
          <mxGeometry x="-120" y="-160" width="40" height="40" as="geometry" />
        </mxCell>
        <mxCell id="5_CFMRtldblJI2udlE0o-25" value="23" style="rounded=0;whiteSpace=wrap;html=1;" parent="1" vertex="1">
          <mxGeometry x="-80" y="-160" width="40" height="40" as="geometry" />
        </mxCell>
        <mxCell id="5_CFMRtldblJI2udlE0o-26" value="45" style="rounded=0;whiteSpace=wrap;html=1;" parent="1" vertex="1">
          <mxGeometry x="-40" y="-160" width="40" height="40" as="geometry" />
        </mxCell>
        <mxCell id="5_CFMRtldblJI2udlE0o-27" value="" style="rounded=0;whiteSpace=wrap;html=1;" parent="1" vertex="1">
          <mxGeometry y="-160" width="40" height="40" as="geometry" />
        </mxCell>
        <mxCell id="5_CFMRtldblJI2udlE0o-29" value="aa" style="rounded=0;whiteSpace=wrap;html=1;" parent="1" vertex="1">
          <mxGeometry x="-120" y="-200" width="40" height="40" as="geometry" />
        </mxCell>
        <mxCell id="5_CFMRtldblJI2udlE0o-30" value="aa" style="rounded=0;whiteSpace=wrap;html=1;" parent="1" vertex="1">
          <mxGeometry x="-80" y="-200" width="40" height="40" as="geometry" />
        </mxCell>
        <mxCell id="5_CFMRtldblJI2udlE0o-31" value="aa" style="rounded=0;whiteSpace=wrap;html=1;" parent="1" vertex="1">
          <mxGeometry x="-40" y="-200" width="40" height="40" as="geometry" />
        </mxCell>
        <mxCell id="5_CFMRtldblJI2udlE0o-32" value="" style="rounded=0;whiteSpace=wrap;html=1;" parent="1" vertex="1">
          <mxGeometry y="-200" width="40" height="40" as="geometry" />
        </mxCell>
        <mxCell id="5_CFMRtldblJI2udlE0o-34" value="id" style="rounded=0;whiteSpace=wrap;html=1;" parent="1" vertex="1">
          <mxGeometry x="-160" y="-120" width="40" height="40" as="geometry" />
        </mxCell>
        <mxCell id="5_CFMRtldblJI2udlE0o-35" value="age" style="rounded=0;whiteSpace=wrap;html=1;" parent="1" vertex="1">
          <mxGeometry x="-160" y="-160" width="40" height="40" as="geometry" />
        </mxCell>
        <mxCell id="5_CFMRtldblJI2udlE0o-36" value="name" style="rounded=0;whiteSpace=wrap;html=1;" parent="1" vertex="1">
          <mxGeometry x="-160" y="-200" width="40" height="40" as="geometry" />
        </mxCell>
        <mxCell id="5_CFMRtldblJI2udlE0o-39" style="rounded=0;orthogonalLoop=1;jettySize=auto;html=1;entryX=0.5;entryY=0;entryDx=0;entryDy=0;exitX=0.5;exitY=1;exitDx=0;exitDy=0;" parent="1" source="5_CFMRtldblJI2udlE0o-42" target="5_CFMRtldblJI2udlE0o-47" edge="1">
          <mxGeometry relative="1" as="geometry" />
        </mxCell>
        <mxCell id="5_CFMRtldblJI2udlE0o-40" style="rounded=0;orthogonalLoop=1;jettySize=auto;html=1;entryX=0.5;entryY=0;entryDx=0;entryDy=0;exitX=0.5;exitY=1;exitDx=0;exitDy=0;" parent="1" source="5_CFMRtldblJI2udlE0o-41" target="5_CFMRtldblJI2udlE0o-46" edge="1">
          <mxGeometry relative="1" as="geometry" />
        </mxCell>
        <mxCell id="5_CFMRtldblJI2udlE0o-41" value="" style="rounded=0;whiteSpace=wrap;html=1;" parent="1" vertex="1">
          <mxGeometry x="320" y="-120" width="40" height="40" as="geometry" />
        </mxCell>
        <mxCell id="5_CFMRtldblJI2udlE0o-42" value="" style="rounded=0;whiteSpace=wrap;html=1;" parent="1" vertex="1">
          <mxGeometry x="360" y="-120" width="40" height="40" as="geometry" />
        </mxCell>
        <mxCell id="5_CFMRtldblJI2udlE0o-43" style="rounded=0;orthogonalLoop=1;jettySize=auto;html=1;entryX=0.5;entryY=0;entryDx=0;entryDy=0;exitX=0.5;exitY=1;exitDx=0;exitDy=0;" parent="1" source="5_CFMRtldblJI2udlE0o-44" target="5_CFMRtldblJI2udlE0o-48" edge="1">
          <mxGeometry relative="1" as="geometry" />
        </mxCell>
        <mxCell id="5_CFMRtldblJI2udlE0o-44" value="" style="rounded=0;whiteSpace=wrap;html=1;" parent="1" vertex="1">
          <mxGeometry x="400" y="-120" width="40" height="40" as="geometry" />
        </mxCell>
        <mxCell id="5_CFMRtldblJI2udlE0o-45" value="" style="rounded=0;whiteSpace=wrap;html=1;" parent="1" vertex="1">
          <mxGeometry x="440" y="-120" width="40" height="40" as="geometry" />
        </mxCell>
        <mxCell id="5_CFMRtldblJI2udlE0o-46" value="1" style="rounded=0;whiteSpace=wrap;html=1;" parent="1" vertex="1">
          <mxGeometry x="360" width="40" height="40" as="geometry" />
        </mxCell>
        <mxCell id="5_CFMRtldblJI2udlE0o-47" value="12" style="rounded=0;whiteSpace=wrap;html=1;" parent="1" vertex="1">
          <mxGeometry x="400" width="40" height="40" as="geometry" />
        </mxCell>
        <mxCell id="5_CFMRtldblJI2udlE0o-48" value="123" style="rounded=0;whiteSpace=wrap;html=1;" parent="1" vertex="1">
          <mxGeometry x="440" width="40" height="40" as="geometry" />
        </mxCell>
        <mxCell id="5_CFMRtldblJI2udlE0o-49" value="" style="rounded=0;whiteSpace=wrap;html=1;" parent="1" vertex="1">
          <mxGeometry x="480" width="40" height="40" as="geometry" />
        </mxCell>
        <mxCell id="5_CFMRtldblJI2udlE0o-50" value="" style="rounded=0;whiteSpace=wrap;html=1;" parent="1" vertex="1">
          <mxGeometry x="520" width="40" height="40" as="geometry" />
        </mxCell>
        <mxCell id="5_CFMRtldblJI2udlE0o-55" value="aa" style="rounded=0;whiteSpace=wrap;html=1;" parent="1" vertex="1">
          <mxGeometry x="320" y="-160" width="40" height="40" as="geometry" />
        </mxCell>
        <mxCell id="5_CFMRtldblJI2udlE0o-56" value="aa" style="rounded=0;whiteSpace=wrap;html=1;" parent="1" vertex="1">
          <mxGeometry x="360" y="-160" width="40" height="40" as="geometry" />
        </mxCell>
        <mxCell id="5_CFMRtldblJI2udlE0o-57" value="aa" style="rounded=0;whiteSpace=wrap;html=1;" parent="1" vertex="1">
          <mxGeometry x="400" y="-160" width="40" height="40" as="geometry" />
        </mxCell>
        <mxCell id="5_CFMRtldblJI2udlE0o-58" value="" style="rounded=0;whiteSpace=wrap;html=1;" parent="1" vertex="1">
          <mxGeometry x="440" y="-160" width="40" height="40" as="geometry" />
        </mxCell>
        <mxCell id="5_CFMRtldblJI2udlE0o-59" value="id" style="rounded=0;whiteSpace=wrap;html=1;" parent="1" vertex="1">
          <mxGeometry x="280" y="-120" width="40" height="40" as="geometry" />
        </mxCell>
        <mxCell id="5_CFMRtldblJI2udlE0o-61" value="name" style="rounded=0;whiteSpace=wrap;html=1;" parent="1" vertex="1">
          <mxGeometry x="280" y="-160" width="40" height="40" as="geometry" />
        </mxCell>
        <mxCell id="bJkzxNUdIqbWmyX0hP_C-1" value="1" style="rounded=0;whiteSpace=wrap;html=1;" parent="1" vertex="1">
          <mxGeometry x="80" y="-400" width="40" height="40" as="geometry" />
        </mxCell>
        <mxCell id="bJkzxNUdIqbWmyX0hP_C-2" value="123" style="rounded=0;whiteSpace=wrap;html=1;" parent="1" vertex="1">
          <mxGeometry x="120" y="-400" width="40" height="40" as="geometry" />
        </mxCell>
        <mxCell id="bJkzxNUdIqbWmyX0hP_C-3" value="" style="rounded=0;whiteSpace=wrap;html=1;" parent="1" vertex="1">
          <mxGeometry x="160" y="-400" width="40" height="40" as="geometry" />
        </mxCell>
        <mxCell id="bJkzxNUdIqbWmyX0hP_C-4" value="" style="rounded=0;whiteSpace=wrap;html=1;" parent="1" vertex="1">
          <mxGeometry x="200" y="-400" width="40" height="40" as="geometry" />
        </mxCell>
        <mxCell id="bJkzxNUdIqbWmyX0hP_C-5" value="" style="rounded=0;whiteSpace=wrap;html=1;" parent="1" vertex="1">
          <mxGeometry x="240" y="-400" width="40" height="40" as="geometry" />
        </mxCell>
        <mxCell id="bJkzxNUdIqbWmyX0hP_C-6" value="" style="endArrow=classic;html=1;rounded=0;" parent="1" edge="1">
          <mxGeometry width="50" height="50" relative="1" as="geometry">
            <mxPoint x="120" y="-280" as="sourcePoint" />
            <mxPoint x="120" y="-350" as="targetPoint" />
          </mxGeometry>
        </mxCell>
      </root>
    </mxGraphModel>
  </diagram>
  <diagram id="e0KXOHoC90XAHJ--BszC" name="第 2 页">
    <mxGraphModel dx="1962" dy="1351" grid="1" gridSize="10" guides="1" tooltips="1" connect="1" arrows="1" fold="1" page="0" pageScale="1" pageWidth="827" pageHeight="1169" math="0" shadow="0">
      <root>
        <mxCell id="0" />
        <mxCell id="1" parent="0" />
        <mxCell id="VTbGTrhPcu87rxTIFEPL-27" style="rounded=0;orthogonalLoop=1;jettySize=auto;html=1;entryX=0.5;entryY=0;entryDx=0;entryDy=0;exitX=0.5;exitY=1;exitDx=0;exitDy=0;" parent="1" source="VTbGTrhPcu87rxTIFEPL-6" target="VTbGTrhPcu87rxTIFEPL-20" edge="1">
          <mxGeometry relative="1" as="geometry" />
        </mxCell>
        <mxCell id="VTbGTrhPcu87rxTIFEPL-5" value="" style="rounded=0;whiteSpace=wrap;html=1;" parent="1" vertex="1">
          <mxGeometry x="-120" y="-120" width="40" height="40" as="geometry" />
        </mxCell>
        <mxCell id="VTbGTrhPcu87rxTIFEPL-6" value="" style="rounded=0;whiteSpace=wrap;html=1;fillColor=#f8cecc;strokeColor=#b85450;" parent="1" vertex="1">
          <mxGeometry x="-80" y="-120" width="40" height="40" as="geometry" />
        </mxCell>
        <mxCell id="VTbGTrhPcu87rxTIFEPL-7" value="" style="rounded=0;whiteSpace=wrap;html=1;" parent="1" vertex="1">
          <mxGeometry x="-40" y="-120" width="40" height="40" as="geometry" />
        </mxCell>
        <mxCell id="VTbGTrhPcu87rxTIFEPL-8" value="" style="rounded=0;whiteSpace=wrap;html=1;" parent="1" vertex="1">
          <mxGeometry y="-120" width="40" height="40" as="geometry" />
        </mxCell>
        <mxCell id="VTbGTrhPcu87rxTIFEPL-9" value="" style="rounded=0;whiteSpace=wrap;html=1;" parent="1" vertex="1">
          <mxGeometry x="40" y="-120" width="40" height="40" as="geometry" />
        </mxCell>
        <mxCell id="VTbGTrhPcu87rxTIFEPL-10" value="" style="rounded=0;whiteSpace=wrap;html=1;" parent="1" vertex="1">
          <mxGeometry x="240" y="-120" width="40" height="40" as="geometry" />
        </mxCell>
        <mxCell id="VTbGTrhPcu87rxTIFEPL-28" style="rounded=0;orthogonalLoop=1;jettySize=auto;html=1;exitX=0.5;exitY=1;exitDx=0;exitDy=0;entryX=0.5;entryY=0;entryDx=0;entryDy=0;dashed=1;" parent="1" source="VTbGTrhPcu87rxTIFEPL-11" target="VTbGTrhPcu87rxTIFEPL-20" edge="1">
          <mxGeometry relative="1" as="geometry" />
        </mxCell>
        <mxCell id="VTbGTrhPcu87rxTIFEPL-11" value="" style="rounded=0;whiteSpace=wrap;html=1;fillColor=#dae8fc;strokeColor=#6c8ebf;" parent="1" vertex="1">
          <mxGeometry x="280" y="-120" width="40" height="40" as="geometry" />
        </mxCell>
        <mxCell id="VTbGTrhPcu87rxTIFEPL-12" value="" style="rounded=0;whiteSpace=wrap;html=1;" parent="1" vertex="1">
          <mxGeometry x="320" y="-120" width="40" height="40" as="geometry" />
        </mxCell>
        <mxCell id="VTbGTrhPcu87rxTIFEPL-13" value="" style="rounded=0;whiteSpace=wrap;html=1;" parent="1" vertex="1">
          <mxGeometry x="360" y="-120" width="40" height="40" as="geometry" />
        </mxCell>
        <mxCell id="VTbGTrhPcu87rxTIFEPL-14" value="" style="rounded=0;whiteSpace=wrap;html=1;" parent="1" vertex="1">
          <mxGeometry x="400" y="-120" width="40" height="40" as="geometry" />
        </mxCell>
        <mxCell id="VTbGTrhPcu87rxTIFEPL-19" value="" style="rounded=0;whiteSpace=wrap;html=1;" parent="1" vertex="1">
          <mxGeometry y="160" width="40" height="40" as="geometry" />
        </mxCell>
        <mxCell id="VTbGTrhPcu87rxTIFEPL-20" value="" style="rounded=0;whiteSpace=wrap;html=1;fillColor=#f8cecc;strokeColor=#b85450;" parent="1" vertex="1">
          <mxGeometry x="40" y="160" width="40" height="40" as="geometry" />
        </mxCell>
        <mxCell id="VTbGTrhPcu87rxTIFEPL-21" value="" style="rounded=0;whiteSpace=wrap;html=1;" parent="1" vertex="1">
          <mxGeometry x="80" y="160" width="40" height="40" as="geometry" />
        </mxCell>
        <mxCell id="VTbGTrhPcu87rxTIFEPL-22" value="" style="rounded=0;whiteSpace=wrap;html=1;" parent="1" vertex="1">
          <mxGeometry x="120" y="160" width="40" height="40" as="geometry" />
        </mxCell>
        <mxCell id="VTbGTrhPcu87rxTIFEPL-23" value="" style="rounded=0;whiteSpace=wrap;html=1;" parent="1" vertex="1">
          <mxGeometry x="160" y="160" width="40" height="40" as="geometry" />
        </mxCell>
        <mxCell id="VTbGTrhPcu87rxTIFEPL-30" style="edgeStyle=orthogonalEdgeStyle;rounded=0;orthogonalLoop=1;jettySize=auto;html=1;" parent="1" source="VTbGTrhPcu87rxTIFEPL-29" target="VTbGTrhPcu87rxTIFEPL-6" edge="1">
          <mxGeometry relative="1" as="geometry" />
        </mxCell>
        <mxCell id="VTbGTrhPcu87rxTIFEPL-31" style="rounded=0;orthogonalLoop=1;jettySize=auto;html=1;entryX=0.5;entryY=0;entryDx=0;entryDy=0;dashed=1;" parent="1" source="VTbGTrhPcu87rxTIFEPL-29" target="VTbGTrhPcu87rxTIFEPL-11" edge="1">
          <mxGeometry relative="1" as="geometry" />
        </mxCell>
        <mxCell id="VTbGTrhPcu87rxTIFEPL-29" value="" style="shape=umlActor;verticalLabelPosition=bottom;verticalAlign=top;html=1;outlineConnect=0;" parent="1" vertex="1">
          <mxGeometry x="-75" y="-320" width="30" height="60" as="geometry" />
        </mxCell>
        <mxCell id="VTbGTrhPcu87rxTIFEPL-33" style="edgeStyle=orthogonalEdgeStyle;rounded=0;orthogonalLoop=1;jettySize=auto;html=1;" parent="1" source="VTbGTrhPcu87rxTIFEPL-32" target="VTbGTrhPcu87rxTIFEPL-11" edge="1">
          <mxGeometry relative="1" as="geometry" />
        </mxCell>
        <mxCell id="VTbGTrhPcu87rxTIFEPL-32" value="" style="shape=umlActor;verticalLabelPosition=bottom;verticalAlign=top;html=1;outlineConnect=0;" parent="1" vertex="1">
          <mxGeometry x="285" y="-320" width="30" height="60" as="geometry" />
        </mxCell>
        <mxCell id="zZjhmNVp3Ymt0Cy2dOMa-1" value="破坏有序性，产生了环&lt;br&gt;索引1，主键索引，索引2&lt;br&gt;索引2，主键索引" style="shape=note;whiteSpace=wrap;html=1;backgroundOutline=1;darkOpacity=0.05;" parent="1" vertex="1">
          <mxGeometry x="320" y="40" width="200" height="100" as="geometry" />
        </mxCell>
        <mxCell id="HSyVfJmM6zMtIee7xdAN-1" value="索引1" style="text;html=1;strokeColor=none;fillColor=none;align=center;verticalAlign=middle;whiteSpace=wrap;rounded=0;" parent="1" vertex="1">
          <mxGeometry x="-20" y="-160" width="80" height="40" as="geometry" />
        </mxCell>
        <mxCell id="HSyVfJmM6zMtIee7xdAN-2" value="索引2" style="text;html=1;strokeColor=none;fillColor=none;align=center;verticalAlign=middle;whiteSpace=wrap;rounded=0;" parent="1" vertex="1">
          <mxGeometry x="340" y="-160" width="80" height="40" as="geometry" />
        </mxCell>
        <mxCell id="HSyVfJmM6zMtIee7xdAN-3" value="主键索引" style="text;html=1;strokeColor=none;fillColor=none;align=center;verticalAlign=middle;whiteSpace=wrap;rounded=0;" parent="1" vertex="1">
          <mxGeometry x="120" y="120" width="80" height="40" as="geometry" />
        </mxCell>
      </root>
    </mxGraphModel>
  </diagram>
  <diagram id="pwwUBnpwLn0ShzLlkwjw" name="第 4 页">
    <mxGraphModel dx="744" dy="853" grid="1" gridSize="10" guides="1" tooltips="1" connect="1" arrows="1" fold="1" page="0" pageScale="1" pageWidth="827" pageHeight="1169" math="0" shadow="0">
      <root>
        <mxCell id="0" />
        <mxCell id="1" parent="0" />
        <mxCell id="jEL-EofrETc9WHHuCErg-1" value="id" style="rounded=0;whiteSpace=wrap;html=1;" parent="1" vertex="1">
          <mxGeometry width="40" height="20" as="geometry" />
        </mxCell>
        <mxCell id="jEL-EofrETc9WHHuCErg-2" value="key2" style="rounded=0;whiteSpace=wrap;html=1;" parent="1" vertex="1">
          <mxGeometry y="-20" width="40" height="20" as="geometry" />
        </mxCell>
        <mxCell id="jEL-EofrETc9WHHuCErg-3" value="key1" style="rounded=0;whiteSpace=wrap;html=1;" parent="1" vertex="1">
          <mxGeometry y="-40" width="40" height="20" as="geometry" />
        </mxCell>
        <mxCell id="jEL-EofrETc9WHHuCErg-10" value="1" style="rounded=0;whiteSpace=wrap;html=1;" parent="1" vertex="1">
          <mxGeometry x="40" width="20" height="20" as="geometry" />
        </mxCell>
        <mxCell id="jEL-EofrETc9WHHuCErg-11" value="" style="rounded=0;whiteSpace=wrap;html=1;" parent="1" vertex="1">
          <mxGeometry x="40" y="-20" width="20" height="20" as="geometry" />
        </mxCell>
        <mxCell id="jEL-EofrETc9WHHuCErg-12" value="1" style="rounded=0;whiteSpace=wrap;html=1;" parent="1" vertex="1">
          <mxGeometry x="40" y="-40" width="20" height="20" as="geometry" />
        </mxCell>
        <mxCell id="jEL-EofrETc9WHHuCErg-13" value="2" style="rounded=0;whiteSpace=wrap;html=1;" parent="1" vertex="1">
          <mxGeometry x="60" width="20" height="20" as="geometry" />
        </mxCell>
        <mxCell id="jEL-EofrETc9WHHuCErg-14" value="" style="rounded=0;whiteSpace=wrap;html=1;" parent="1" vertex="1">
          <mxGeometry x="60" y="-20" width="20" height="20" as="geometry" />
        </mxCell>
        <mxCell id="jEL-EofrETc9WHHuCErg-15" value="1" style="rounded=0;whiteSpace=wrap;html=1;" parent="1" vertex="1">
          <mxGeometry x="60" y="-40" width="20" height="20" as="geometry" />
        </mxCell>
        <mxCell id="jEL-EofrETc9WHHuCErg-16" value="3" style="rounded=0;whiteSpace=wrap;html=1;" parent="1" vertex="1">
          <mxGeometry x="80" width="20" height="20" as="geometry" />
        </mxCell>
        <mxCell id="jEL-EofrETc9WHHuCErg-17" value="" style="rounded=0;whiteSpace=wrap;html=1;" parent="1" vertex="1">
          <mxGeometry x="80" y="-20" width="20" height="20" as="geometry" />
        </mxCell>
        <mxCell id="jEL-EofrETc9WHHuCErg-18" value="1" style="rounded=0;whiteSpace=wrap;html=1;" parent="1" vertex="1">
          <mxGeometry x="80" y="-40" width="20" height="20" as="geometry" />
        </mxCell>
        <mxCell id="jEL-EofrETc9WHHuCErg-19" value="4" style="rounded=0;whiteSpace=wrap;html=1;" parent="1" vertex="1">
          <mxGeometry x="100" width="20" height="20" as="geometry" />
        </mxCell>
        <mxCell id="jEL-EofrETc9WHHuCErg-20" value="" style="rounded=0;whiteSpace=wrap;html=1;" parent="1" vertex="1">
          <mxGeometry x="100" y="-20" width="20" height="20" as="geometry" />
        </mxCell>
        <mxCell id="jEL-EofrETc9WHHuCErg-21" value="1" style="rounded=0;whiteSpace=wrap;html=1;" parent="1" vertex="1">
          <mxGeometry x="100" y="-40" width="20" height="20" as="geometry" />
        </mxCell>
        <mxCell id="jEL-EofrETc9WHHuCErg-22" value="5" style="rounded=0;whiteSpace=wrap;html=1;" parent="1" vertex="1">
          <mxGeometry x="120" width="20" height="20" as="geometry" />
        </mxCell>
        <mxCell id="jEL-EofrETc9WHHuCErg-23" value="" style="rounded=0;whiteSpace=wrap;html=1;" parent="1" vertex="1">
          <mxGeometry x="120" y="-20" width="20" height="20" as="geometry" />
        </mxCell>
        <mxCell id="jEL-EofrETc9WHHuCErg-24" value="1" style="rounded=0;whiteSpace=wrap;html=1;" parent="1" vertex="1">
          <mxGeometry x="120" y="-40" width="20" height="20" as="geometry" />
        </mxCell>
        <mxCell id="jEL-EofrETc9WHHuCErg-25" value="6" style="rounded=0;whiteSpace=wrap;html=1;" parent="1" vertex="1">
          <mxGeometry x="140" width="20" height="20" as="geometry" />
        </mxCell>
        <mxCell id="jEL-EofrETc9WHHuCErg-26" value="" style="rounded=0;whiteSpace=wrap;html=1;" parent="1" vertex="1">
          <mxGeometry x="140" y="-20" width="20" height="20" as="geometry" />
        </mxCell>
        <mxCell id="jEL-EofrETc9WHHuCErg-27" value="2" style="rounded=0;whiteSpace=wrap;html=1;" parent="1" vertex="1">
          <mxGeometry x="140" y="-40" width="20" height="20" as="geometry" />
        </mxCell>
        <mxCell id="jEL-EofrETc9WHHuCErg-28" value="7" style="rounded=0;whiteSpace=wrap;html=1;" parent="1" vertex="1">
          <mxGeometry x="160" width="20" height="20" as="geometry" />
        </mxCell>
        <mxCell id="jEL-EofrETc9WHHuCErg-29" value="" style="rounded=0;whiteSpace=wrap;html=1;" parent="1" vertex="1">
          <mxGeometry x="160" y="-20" width="20" height="20" as="geometry" />
        </mxCell>
        <mxCell id="jEL-EofrETc9WHHuCErg-30" value="2" style="rounded=0;whiteSpace=wrap;html=1;" parent="1" vertex="1">
          <mxGeometry x="160" y="-40" width="20" height="20" as="geometry" />
        </mxCell>
        <mxCell id="jEL-EofrETc9WHHuCErg-31" value="8" style="rounded=0;whiteSpace=wrap;html=1;" parent="1" vertex="1">
          <mxGeometry x="180" width="20" height="20" as="geometry" />
        </mxCell>
        <mxCell id="jEL-EofrETc9WHHuCErg-32" value="" style="rounded=0;whiteSpace=wrap;html=1;" parent="1" vertex="1">
          <mxGeometry x="180" y="-20" width="20" height="20" as="geometry" />
        </mxCell>
        <mxCell id="jEL-EofrETc9WHHuCErg-33" value="2" style="rounded=0;whiteSpace=wrap;html=1;" parent="1" vertex="1">
          <mxGeometry x="180" y="-40" width="20" height="20" as="geometry" />
        </mxCell>
        <mxCell id="jEL-EofrETc9WHHuCErg-34" value="9" style="rounded=0;whiteSpace=wrap;html=1;" parent="1" vertex="1">
          <mxGeometry x="200" width="20" height="20" as="geometry" />
        </mxCell>
        <mxCell id="jEL-EofrETc9WHHuCErg-35" value="" style="rounded=0;whiteSpace=wrap;html=1;" parent="1" vertex="1">
          <mxGeometry x="200" y="-20" width="20" height="20" as="geometry" />
        </mxCell>
        <mxCell id="jEL-EofrETc9WHHuCErg-36" value="2" style="rounded=0;whiteSpace=wrap;html=1;" parent="1" vertex="1">
          <mxGeometry x="200" y="-40" width="20" height="20" as="geometry" />
        </mxCell>
        <mxCell id="jEL-EofrETc9WHHuCErg-37" value="10" style="rounded=0;whiteSpace=wrap;html=1;" parent="1" vertex="1">
          <mxGeometry x="220" width="20" height="20" as="geometry" />
        </mxCell>
        <mxCell id="jEL-EofrETc9WHHuCErg-38" value="" style="rounded=0;whiteSpace=wrap;html=1;" parent="1" vertex="1">
          <mxGeometry x="220" y="-20" width="20" height="20" as="geometry" />
        </mxCell>
        <mxCell id="jEL-EofrETc9WHHuCErg-39" value="2" style="rounded=0;whiteSpace=wrap;html=1;" parent="1" vertex="1">
          <mxGeometry x="220" y="-40" width="20" height="20" as="geometry" />
        </mxCell>
        <mxCell id="jEL-EofrETc9WHHuCErg-54" style="rounded=0;orthogonalLoop=1;jettySize=auto;html=1;entryX=0.5;entryY=0;entryDx=0;entryDy=0;fillColor=#f8cecc;strokeColor=#b85450;" parent="1" target="jEL-EofrETc9WHHuCErg-12" edge="1">
          <mxGeometry relative="1" as="geometry">
            <mxPoint x="140" y="-130" as="sourcePoint" />
          </mxGeometry>
        </mxCell>
        <mxCell id="jEL-EofrETc9WHHuCErg-55" value="" style="endArrow=classic;html=1;rounded=0;" parent="1" edge="1">
          <mxGeometry width="50" height="50" relative="1" as="geometry">
            <mxPoint x="140" y="-160" as="sourcePoint" />
            <mxPoint x="140" y="-130" as="targetPoint" />
          </mxGeometry>
        </mxCell>
        <mxCell id="jEL-EofrETc9WHHuCErg-56" style="rounded=0;orthogonalLoop=1;jettySize=auto;html=1;entryX=0.5;entryY=0;entryDx=0;entryDy=0;fillColor=#f8cecc;strokeColor=#b85450;" parent="1" target="jEL-EofrETc9WHHuCErg-15" edge="1">
          <mxGeometry relative="1" as="geometry">
            <mxPoint x="140" y="-130" as="sourcePoint" />
            <mxPoint x="60" y="-30" as="targetPoint" />
          </mxGeometry>
        </mxCell>
        <mxCell id="jEL-EofrETc9WHHuCErg-57" style="rounded=0;orthogonalLoop=1;jettySize=auto;html=1;entryX=0.5;entryY=0;entryDx=0;entryDy=0;fillColor=#f8cecc;strokeColor=#b85450;" parent="1" target="jEL-EofrETc9WHHuCErg-18" edge="1">
          <mxGeometry relative="1" as="geometry">
            <mxPoint x="140" y="-130" as="sourcePoint" />
            <mxPoint x="80" y="-30" as="targetPoint" />
          </mxGeometry>
        </mxCell>
        <mxCell id="jEL-EofrETc9WHHuCErg-58" style="rounded=0;orthogonalLoop=1;jettySize=auto;html=1;entryX=0.5;entryY=0;entryDx=0;entryDy=0;fillColor=#f8cecc;strokeColor=#b85450;" parent="1" target="jEL-EofrETc9WHHuCErg-21" edge="1">
          <mxGeometry relative="1" as="geometry">
            <mxPoint x="140" y="-130" as="sourcePoint" />
            <mxPoint x="100" y="-30" as="targetPoint" />
          </mxGeometry>
        </mxCell>
        <mxCell id="jEL-EofrETc9WHHuCErg-59" style="rounded=0;orthogonalLoop=1;jettySize=auto;html=1;entryX=0.5;entryY=0;entryDx=0;entryDy=0;fillColor=#f8cecc;strokeColor=#b85450;" parent="1" target="jEL-EofrETc9WHHuCErg-24" edge="1">
          <mxGeometry relative="1" as="geometry">
            <mxPoint x="140" y="-130" as="sourcePoint" />
            <mxPoint x="120" y="-30" as="targetPoint" />
          </mxGeometry>
        </mxCell>
        <mxCell id="jEL-EofrETc9WHHuCErg-60" style="rounded=0;orthogonalLoop=1;jettySize=auto;html=1;fillColor=#d5e8d4;strokeColor=#82b366;" parent="1" edge="1">
          <mxGeometry relative="1" as="geometry">
            <mxPoint x="140" y="-130" as="sourcePoint" />
            <mxPoint x="150" y="-40" as="targetPoint" />
          </mxGeometry>
        </mxCell>
        <mxCell id="jEL-EofrETc9WHHuCErg-61" style="rounded=0;orthogonalLoop=1;jettySize=auto;html=1;entryX=0.5;entryY=0;entryDx=0;entryDy=0;fillColor=#d5e8d4;strokeColor=#82b366;" parent="1" target="jEL-EofrETc9WHHuCErg-30" edge="1">
          <mxGeometry relative="1" as="geometry">
            <mxPoint x="140" y="-130" as="sourcePoint" />
            <mxPoint x="160" y="-30" as="targetPoint" />
          </mxGeometry>
        </mxCell>
        <mxCell id="jEL-EofrETc9WHHuCErg-62" style="rounded=0;orthogonalLoop=1;jettySize=auto;html=1;entryX=0.5;entryY=0;entryDx=0;entryDy=0;fillColor=#d5e8d4;strokeColor=#82b366;" parent="1" target="jEL-EofrETc9WHHuCErg-33" edge="1">
          <mxGeometry relative="1" as="geometry">
            <mxPoint x="140" y="-130" as="sourcePoint" />
            <mxPoint x="180" y="-30" as="targetPoint" />
          </mxGeometry>
        </mxCell>
        <mxCell id="jEL-EofrETc9WHHuCErg-63" style="rounded=0;orthogonalLoop=1;jettySize=auto;html=1;entryX=0.5;entryY=0;entryDx=0;entryDy=0;fillColor=#d5e8d4;strokeColor=#82b366;" parent="1" target="jEL-EofrETc9WHHuCErg-36" edge="1">
          <mxGeometry relative="1" as="geometry">
            <mxPoint x="140" y="-130" as="sourcePoint" />
            <mxPoint x="200" y="-30" as="targetPoint" />
          </mxGeometry>
        </mxCell>
        <mxCell id="jEL-EofrETc9WHHuCErg-64" value="key1 = 2" style="text;html=1;strokeColor=none;fillColor=none;align=center;verticalAlign=middle;whiteSpace=wrap;rounded=0;" parent="1" vertex="1">
          <mxGeometry x="140" y="-160" width="80" height="30" as="geometry" />
        </mxCell>
        <mxCell id="jEL-EofrETc9WHHuCErg-65" style="rounded=0;orthogonalLoop=1;jettySize=auto;html=1;entryX=0.5;entryY=0;entryDx=0;entryDy=0;exitX=0;exitY=1;exitDx=0;exitDy=0;fillColor=#d5e8d4;strokeColor=#82b366;" parent="1" source="jEL-EofrETc9WHHuCErg-64" target="jEL-EofrETc9WHHuCErg-39" edge="1">
          <mxGeometry relative="1" as="geometry">
            <mxPoint x="150" y="-120" as="sourcePoint" />
            <mxPoint x="220" y="-30" as="targetPoint" />
          </mxGeometry>
        </mxCell>
        <mxCell id="XZpGJU7cZ8Szo4ShgMjH-1" value="id" style="rounded=0;whiteSpace=wrap;html=1;" parent="1" vertex="1">
          <mxGeometry y="120" width="40" height="20" as="geometry" />
        </mxCell>
        <mxCell id="XZpGJU7cZ8Szo4ShgMjH-4" value="1" style="rounded=0;whiteSpace=wrap;html=1;fillColor=#f8cecc;strokeColor=#b85450;" parent="1" vertex="1">
          <mxGeometry x="40" y="120" width="20" height="20" as="geometry" />
        </mxCell>
        <mxCell id="XZpGJU7cZ8Szo4ShgMjH-7" value="2" style="rounded=0;whiteSpace=wrap;html=1;" parent="1" vertex="1">
          <mxGeometry x="60" y="120" width="20" height="20" as="geometry" />
        </mxCell>
        <mxCell id="XZpGJU7cZ8Szo4ShgMjH-10" value="3" style="rounded=0;whiteSpace=wrap;html=1;" parent="1" vertex="1">
          <mxGeometry x="80" y="120" width="20" height="20" as="geometry" />
        </mxCell>
        <mxCell id="XZpGJU7cZ8Szo4ShgMjH-13" value="4" style="rounded=0;whiteSpace=wrap;html=1;" parent="1" vertex="1">
          <mxGeometry x="100" y="120" width="20" height="20" as="geometry" />
        </mxCell>
        <mxCell id="XZpGJU7cZ8Szo4ShgMjH-16" value="5" style="rounded=0;whiteSpace=wrap;html=1;" parent="1" vertex="1">
          <mxGeometry x="120" y="120" width="20" height="20" as="geometry" />
        </mxCell>
        <mxCell id="XZpGJU7cZ8Szo4ShgMjH-19" value="6" style="rounded=0;whiteSpace=wrap;html=1;fillColor=#f8cecc;strokeColor=#b85450;" parent="1" vertex="1">
          <mxGeometry x="140" y="120" width="20" height="20" as="geometry" />
        </mxCell>
        <mxCell id="XZpGJU7cZ8Szo4ShgMjH-22" value="7" style="rounded=0;whiteSpace=wrap;html=1;" parent="1" vertex="1">
          <mxGeometry x="160" y="120" width="20" height="20" as="geometry" />
        </mxCell>
        <mxCell id="XZpGJU7cZ8Szo4ShgMjH-25" value="8" style="rounded=0;whiteSpace=wrap;html=1;" parent="1" vertex="1">
          <mxGeometry x="180" y="120" width="20" height="20" as="geometry" />
        </mxCell>
        <mxCell id="XZpGJU7cZ8Szo4ShgMjH-28" value="9" style="rounded=0;whiteSpace=wrap;html=1;" parent="1" vertex="1">
          <mxGeometry x="200" y="120" width="20" height="20" as="geometry" />
        </mxCell>
        <mxCell id="XZpGJU7cZ8Szo4ShgMjH-31" value="10" style="rounded=0;whiteSpace=wrap;html=1;" parent="1" vertex="1">
          <mxGeometry x="220" y="120" width="20" height="20" as="geometry" />
        </mxCell>
        <mxCell id="zuDydmJTWH6acEpoQrSR-45" value="age" style="rounded=0;whiteSpace=wrap;html=1;" parent="1" vertex="1">
          <mxGeometry y="100" width="40" height="20" as="geometry" />
        </mxCell>
        <mxCell id="zuDydmJTWH6acEpoQrSR-46" value="20" style="rounded=0;whiteSpace=wrap;html=1;fillColor=#f8cecc;strokeColor=#b85450;" parent="1" vertex="1">
          <mxGeometry x="40" y="100" width="20" height="20" as="geometry" />
        </mxCell>
        <mxCell id="zuDydmJTWH6acEpoQrSR-47" value="20" style="rounded=0;whiteSpace=wrap;html=1;" parent="1" vertex="1">
          <mxGeometry x="60" y="100" width="20" height="20" as="geometry" />
        </mxCell>
        <mxCell id="zuDydmJTWH6acEpoQrSR-48" value="25" style="rounded=0;whiteSpace=wrap;html=1;" parent="1" vertex="1">
          <mxGeometry x="80" y="100" width="20" height="20" as="geometry" />
        </mxCell>
        <mxCell id="zuDydmJTWH6acEpoQrSR-49" value="25" style="rounded=0;whiteSpace=wrap;html=1;" parent="1" vertex="1">
          <mxGeometry x="100" y="100" width="20" height="20" as="geometry" />
        </mxCell>
        <mxCell id="zuDydmJTWH6acEpoQrSR-50" value="25" style="rounded=0;whiteSpace=wrap;html=1;" parent="1" vertex="1">
          <mxGeometry x="120" y="100" width="20" height="20" as="geometry" />
        </mxCell>
        <mxCell id="zuDydmJTWH6acEpoQrSR-51" value="20" style="rounded=0;whiteSpace=wrap;html=1;fillColor=#f8cecc;strokeColor=#b85450;" parent="1" vertex="1">
          <mxGeometry x="140" y="100" width="20" height="20" as="geometry" />
        </mxCell>
        <mxCell id="zuDydmJTWH6acEpoQrSR-52" value="20" style="rounded=0;whiteSpace=wrap;html=1;" parent="1" vertex="1">
          <mxGeometry x="160" y="100" width="20" height="20" as="geometry" />
        </mxCell>
        <mxCell id="zuDydmJTWH6acEpoQrSR-53" value="25" style="rounded=0;whiteSpace=wrap;html=1;" parent="1" vertex="1">
          <mxGeometry x="180" y="100" width="20" height="20" as="geometry" />
        </mxCell>
        <mxCell id="zuDydmJTWH6acEpoQrSR-54" value="25" style="rounded=0;whiteSpace=wrap;html=1;" parent="1" vertex="1">
          <mxGeometry x="200" y="100" width="20" height="20" as="geometry" />
        </mxCell>
        <mxCell id="zuDydmJTWH6acEpoQrSR-55" value="25" style="rounded=0;whiteSpace=wrap;html=1;" parent="1" vertex="1">
          <mxGeometry x="220" y="100" width="20" height="20" as="geometry" />
        </mxCell>
        <mxCell id="zuDydmJTWH6acEpoQrSR-56" value="sex" style="rounded=0;whiteSpace=wrap;html=1;" parent="1" vertex="1">
          <mxGeometry y="80" width="40" height="20" as="geometry" />
        </mxCell>
        <mxCell id="leX_9AzpuB4AGnlNnbfJ-89" style="edgeStyle=orthogonalEdgeStyle;rounded=0;orthogonalLoop=1;jettySize=auto;html=1;entryX=0.5;entryY=0;entryDx=0;entryDy=0;curved=1;" edge="1" parent="1" source="zuDydmJTWH6acEpoQrSR-57" target="zuDydmJTWH6acEpoQrSR-62">
          <mxGeometry relative="1" as="geometry">
            <Array as="points">
              <mxPoint x="50" y="50" />
              <mxPoint x="150" y="50" />
            </Array>
          </mxGeometry>
        </mxCell>
        <mxCell id="zuDydmJTWH6acEpoQrSR-57" value="f" style="rounded=0;whiteSpace=wrap;html=1;fillColor=#f8cecc;strokeColor=#b85450;" parent="1" vertex="1">
          <mxGeometry x="40" y="80" width="20" height="20" as="geometry" />
        </mxCell>
        <mxCell id="zuDydmJTWH6acEpoQrSR-58" value="f" style="rounded=0;whiteSpace=wrap;html=1;" parent="1" vertex="1">
          <mxGeometry x="60" y="80" width="20" height="20" as="geometry" />
        </mxCell>
        <mxCell id="zuDydmJTWH6acEpoQrSR-59" value="f" style="rounded=0;whiteSpace=wrap;html=1;" parent="1" vertex="1">
          <mxGeometry x="80" y="80" width="20" height="20" as="geometry" />
        </mxCell>
        <mxCell id="zuDydmJTWH6acEpoQrSR-60" value="f" style="rounded=0;whiteSpace=wrap;html=1;" parent="1" vertex="1">
          <mxGeometry x="100" y="80" width="20" height="20" as="geometry" />
        </mxCell>
        <mxCell id="zuDydmJTWH6acEpoQrSR-61" value="f" style="rounded=0;whiteSpace=wrap;html=1;" parent="1" vertex="1">
          <mxGeometry x="120" y="80" width="20" height="20" as="geometry" />
        </mxCell>
        <mxCell id="zuDydmJTWH6acEpoQrSR-62" value="m" style="rounded=0;whiteSpace=wrap;html=1;fillColor=#f8cecc;strokeColor=#b85450;" parent="1" vertex="1">
          <mxGeometry x="140" y="80" width="20" height="20" as="geometry" />
        </mxCell>
        <mxCell id="zuDydmJTWH6acEpoQrSR-63" value="m" style="rounded=0;whiteSpace=wrap;html=1;" parent="1" vertex="1">
          <mxGeometry x="160" y="80" width="20" height="20" as="geometry" />
        </mxCell>
        <mxCell id="zuDydmJTWH6acEpoQrSR-64" value="m" style="rounded=0;whiteSpace=wrap;html=1;" parent="1" vertex="1">
          <mxGeometry x="180" y="80" width="20" height="20" as="geometry" />
        </mxCell>
        <mxCell id="zuDydmJTWH6acEpoQrSR-65" value="m" style="rounded=0;whiteSpace=wrap;html=1;" parent="1" vertex="1">
          <mxGeometry x="200" y="80" width="20" height="20" as="geometry" />
        </mxCell>
        <mxCell id="zuDydmJTWH6acEpoQrSR-66" value="m" style="rounded=0;whiteSpace=wrap;html=1;" parent="1" vertex="1">
          <mxGeometry x="220" y="80" width="20" height="20" as="geometry" />
        </mxCell>
        <mxCell id="zuDydmJTWH6acEpoQrSR-122" value="id" style="rounded=0;whiteSpace=wrap;html=1;" parent="1" vertex="1">
          <mxGeometry y="240" width="40" height="20" as="geometry" />
        </mxCell>
        <mxCell id="zuDydmJTWH6acEpoQrSR-123" value="1" style="rounded=0;whiteSpace=wrap;html=1;fillColor=#f8cecc;strokeColor=#b85450;" parent="1" vertex="1">
          <mxGeometry x="40" y="240" width="20" height="20" as="geometry" />
        </mxCell>
        <mxCell id="zuDydmJTWH6acEpoQrSR-124" value="2" style="rounded=0;whiteSpace=wrap;html=1;" parent="1" vertex="1">
          <mxGeometry x="60" y="240" width="20" height="20" as="geometry" />
        </mxCell>
        <mxCell id="zuDydmJTWH6acEpoQrSR-125" value="3" style="rounded=0;whiteSpace=wrap;html=1;fillColor=#f8cecc;strokeColor=#b85450;" parent="1" vertex="1">
          <mxGeometry x="80" y="240" width="20" height="20" as="geometry" />
        </mxCell>
        <mxCell id="zuDydmJTWH6acEpoQrSR-126" value="4" style="rounded=0;whiteSpace=wrap;html=1;" parent="1" vertex="1">
          <mxGeometry x="100" y="240" width="20" height="20" as="geometry" />
        </mxCell>
        <mxCell id="zuDydmJTWH6acEpoQrSR-127" value="5" style="rounded=0;whiteSpace=wrap;html=1;" parent="1" vertex="1">
          <mxGeometry x="120" y="240" width="20" height="20" as="geometry" />
        </mxCell>
        <mxCell id="zuDydmJTWH6acEpoQrSR-128" value="6" style="rounded=0;whiteSpace=wrap;html=1;" parent="1" vertex="1">
          <mxGeometry x="140" y="240" width="20" height="20" as="geometry" />
        </mxCell>
        <mxCell id="zuDydmJTWH6acEpoQrSR-129" value="7" style="rounded=0;whiteSpace=wrap;html=1;" parent="1" vertex="1">
          <mxGeometry x="160" y="240" width="20" height="20" as="geometry" />
        </mxCell>
        <mxCell id="zuDydmJTWH6acEpoQrSR-130" value="8" style="rounded=0;whiteSpace=wrap;html=1;" parent="1" vertex="1">
          <mxGeometry x="180" y="240" width="20" height="20" as="geometry" />
        </mxCell>
        <mxCell id="zuDydmJTWH6acEpoQrSR-131" value="9" style="rounded=0;whiteSpace=wrap;html=1;" parent="1" vertex="1">
          <mxGeometry x="200" y="240" width="20" height="20" as="geometry" />
        </mxCell>
        <mxCell id="zuDydmJTWH6acEpoQrSR-132" value="10" style="rounded=0;whiteSpace=wrap;html=1;" parent="1" vertex="1">
          <mxGeometry x="220" y="240" width="20" height="20" as="geometry" />
        </mxCell>
        <mxCell id="zuDydmJTWH6acEpoQrSR-133" value="age" style="rounded=0;whiteSpace=wrap;html=1;" parent="1" vertex="1">
          <mxGeometry y="220" width="40" height="20" as="geometry" />
        </mxCell>
        <mxCell id="zuDydmJTWH6acEpoQrSR-134" value="20" style="rounded=0;whiteSpace=wrap;html=1;fillColor=#f8cecc;strokeColor=#b85450;" parent="1" vertex="1">
          <mxGeometry x="40" y="220" width="20" height="20" as="geometry" />
        </mxCell>
        <mxCell id="zuDydmJTWH6acEpoQrSR-135" value="20" style="rounded=0;whiteSpace=wrap;html=1;" parent="1" vertex="1">
          <mxGeometry x="60" y="220" width="20" height="20" as="geometry" />
        </mxCell>
        <mxCell id="zuDydmJTWH6acEpoQrSR-136" value="25" style="rounded=0;whiteSpace=wrap;html=1;fillColor=#f8cecc;strokeColor=#b85450;" parent="1" vertex="1">
          <mxGeometry x="80" y="220" width="20" height="20" as="geometry" />
        </mxCell>
        <mxCell id="zuDydmJTWH6acEpoQrSR-137" value="25" style="rounded=0;whiteSpace=wrap;html=1;" parent="1" vertex="1">
          <mxGeometry x="100" y="220" width="20" height="20" as="geometry" />
        </mxCell>
        <mxCell id="zuDydmJTWH6acEpoQrSR-138" value="25" style="rounded=0;whiteSpace=wrap;html=1;" parent="1" vertex="1">
          <mxGeometry x="120" y="220" width="20" height="20" as="geometry" />
        </mxCell>
        <mxCell id="zuDydmJTWH6acEpoQrSR-139" value="20" style="rounded=0;whiteSpace=wrap;html=1;" parent="1" vertex="1">
          <mxGeometry x="140" y="220" width="20" height="20" as="geometry" />
        </mxCell>
        <mxCell id="zuDydmJTWH6acEpoQrSR-140" value="20" style="rounded=0;whiteSpace=wrap;html=1;" parent="1" vertex="1">
          <mxGeometry x="160" y="220" width="20" height="20" as="geometry" />
        </mxCell>
        <mxCell id="zuDydmJTWH6acEpoQrSR-141" value="25" style="rounded=0;whiteSpace=wrap;html=1;" parent="1" vertex="1">
          <mxGeometry x="180" y="220" width="20" height="20" as="geometry" />
        </mxCell>
        <mxCell id="zuDydmJTWH6acEpoQrSR-142" value="25" style="rounded=0;whiteSpace=wrap;html=1;" parent="1" vertex="1">
          <mxGeometry x="200" y="220" width="20" height="20" as="geometry" />
        </mxCell>
        <mxCell id="zuDydmJTWH6acEpoQrSR-143" value="25" style="rounded=0;whiteSpace=wrap;html=1;" parent="1" vertex="1">
          <mxGeometry x="220" y="220" width="20" height="20" as="geometry" />
        </mxCell>
        <mxCell id="zuDydmJTWH6acEpoQrSR-144" value="sex" style="rounded=0;whiteSpace=wrap;html=1;" parent="1" vertex="1">
          <mxGeometry y="200" width="40" height="20" as="geometry" />
        </mxCell>
        <mxCell id="zuDydmJTWH6acEpoQrSR-145" value="f" style="rounded=0;whiteSpace=wrap;html=1;fillColor=#f8cecc;strokeColor=#b85450;" parent="1" vertex="1">
          <mxGeometry x="40" y="200" width="20" height="20" as="geometry" />
        </mxCell>
        <mxCell id="zuDydmJTWH6acEpoQrSR-146" value="f" style="rounded=0;whiteSpace=wrap;html=1;" parent="1" vertex="1">
          <mxGeometry x="60" y="200" width="20" height="20" as="geometry" />
        </mxCell>
        <mxCell id="zuDydmJTWH6acEpoQrSR-147" value="f" style="rounded=0;whiteSpace=wrap;html=1;fillColor=#f8cecc;strokeColor=#b85450;" parent="1" vertex="1">
          <mxGeometry x="80" y="200" width="20" height="20" as="geometry" />
        </mxCell>
        <mxCell id="zuDydmJTWH6acEpoQrSR-148" value="f" style="rounded=0;whiteSpace=wrap;html=1;" parent="1" vertex="1">
          <mxGeometry x="100" y="200" width="20" height="20" as="geometry" />
        </mxCell>
        <mxCell id="zuDydmJTWH6acEpoQrSR-149" value="f" style="rounded=0;whiteSpace=wrap;html=1;" parent="1" vertex="1">
          <mxGeometry x="120" y="200" width="20" height="20" as="geometry" />
        </mxCell>
        <mxCell id="zuDydmJTWH6acEpoQrSR-150" value="m" style="rounded=0;whiteSpace=wrap;html=1;" parent="1" vertex="1">
          <mxGeometry x="140" y="200" width="20" height="20" as="geometry" />
        </mxCell>
        <mxCell id="zuDydmJTWH6acEpoQrSR-151" value="m" style="rounded=0;whiteSpace=wrap;html=1;" parent="1" vertex="1">
          <mxGeometry x="160" y="200" width="20" height="20" as="geometry" />
        </mxCell>
        <mxCell id="zuDydmJTWH6acEpoQrSR-152" value="m" style="rounded=0;whiteSpace=wrap;html=1;" parent="1" vertex="1">
          <mxGeometry x="180" y="200" width="20" height="20" as="geometry" />
        </mxCell>
        <mxCell id="zuDydmJTWH6acEpoQrSR-153" value="m" style="rounded=0;whiteSpace=wrap;html=1;" parent="1" vertex="1">
          <mxGeometry x="200" y="200" width="20" height="20" as="geometry" />
        </mxCell>
        <mxCell id="zuDydmJTWH6acEpoQrSR-154" value="m" style="rounded=0;whiteSpace=wrap;html=1;" parent="1" vertex="1">
          <mxGeometry x="220" y="200" width="20" height="20" as="geometry" />
        </mxCell>
        <mxCell id="zuDydmJTWH6acEpoQrSR-155" value="id" style="rounded=0;whiteSpace=wrap;html=1;" parent="1" vertex="1">
          <mxGeometry x="300" y="20" width="40" height="20" as="geometry" />
        </mxCell>
        <mxCell id="zuDydmJTWH6acEpoQrSR-156" value="1" style="rounded=0;whiteSpace=wrap;html=1;" parent="1" vertex="1">
          <mxGeometry x="340" y="20" width="20" height="20" as="geometry" />
        </mxCell>
        <mxCell id="zuDydmJTWH6acEpoQrSR-157" value="2" style="rounded=0;whiteSpace=wrap;html=1;" parent="1" vertex="1">
          <mxGeometry x="360" y="20" width="20" height="20" as="geometry" />
        </mxCell>
        <mxCell id="zuDydmJTWH6acEpoQrSR-158" value="3" style="rounded=0;whiteSpace=wrap;html=1;" parent="1" vertex="1">
          <mxGeometry x="380" y="20" width="20" height="20" as="geometry" />
        </mxCell>
        <mxCell id="zuDydmJTWH6acEpoQrSR-159" value="4" style="rounded=0;whiteSpace=wrap;html=1;" parent="1" vertex="1">
          <mxGeometry x="400" y="20" width="20" height="20" as="geometry" />
        </mxCell>
        <mxCell id="zuDydmJTWH6acEpoQrSR-160" value="5" style="rounded=0;whiteSpace=wrap;html=1;" parent="1" vertex="1">
          <mxGeometry x="420" y="20" width="20" height="20" as="geometry" />
        </mxCell>
        <mxCell id="zuDydmJTWH6acEpoQrSR-161" value="6" style="rounded=0;whiteSpace=wrap;html=1;" parent="1" vertex="1">
          <mxGeometry x="440" y="20" width="20" height="20" as="geometry" />
        </mxCell>
        <mxCell id="zuDydmJTWH6acEpoQrSR-162" value="7" style="rounded=0;whiteSpace=wrap;html=1;" parent="1" vertex="1">
          <mxGeometry x="460" y="20" width="20" height="20" as="geometry" />
        </mxCell>
        <mxCell id="zuDydmJTWH6acEpoQrSR-163" value="8" style="rounded=0;whiteSpace=wrap;html=1;" parent="1" vertex="1">
          <mxGeometry x="480" y="20" width="20" height="20" as="geometry" />
        </mxCell>
        <mxCell id="zuDydmJTWH6acEpoQrSR-164" value="9" style="rounded=0;whiteSpace=wrap;html=1;" parent="1" vertex="1">
          <mxGeometry x="500" y="20" width="20" height="20" as="geometry" />
        </mxCell>
        <mxCell id="zuDydmJTWH6acEpoQrSR-165" value="10" style="rounded=0;whiteSpace=wrap;html=1;" parent="1" vertex="1">
          <mxGeometry x="520" y="20" width="20" height="20" as="geometry" />
        </mxCell>
        <mxCell id="zuDydmJTWH6acEpoQrSR-166" value="age" style="rounded=0;whiteSpace=wrap;html=1;" parent="1" vertex="1">
          <mxGeometry x="300" y="-20" width="40" height="20" as="geometry" />
        </mxCell>
        <mxCell id="zuDydmJTWH6acEpoQrSR-167" value="20" style="rounded=0;whiteSpace=wrap;html=1;fillColor=#f8cecc;strokeColor=#b85450;" parent="1" vertex="1">
          <mxGeometry x="340" y="-20" width="20" height="20" as="geometry" />
        </mxCell>
        <mxCell id="zuDydmJTWH6acEpoQrSR-168" value="20" style="rounded=0;whiteSpace=wrap;html=1;fillColor=#f8cecc;strokeColor=#b85450;" parent="1" vertex="1">
          <mxGeometry x="360" y="-20" width="20" height="20" as="geometry" />
        </mxCell>
        <mxCell id="zuDydmJTWH6acEpoQrSR-169" value="25" style="rounded=0;whiteSpace=wrap;html=1;" parent="1" vertex="1">
          <mxGeometry x="380" y="-20" width="20" height="20" as="geometry" />
        </mxCell>
        <mxCell id="zuDydmJTWH6acEpoQrSR-170" value="25" style="rounded=0;whiteSpace=wrap;html=1;" parent="1" vertex="1">
          <mxGeometry x="400" y="-20" width="20" height="20" as="geometry" />
        </mxCell>
        <mxCell id="zuDydmJTWH6acEpoQrSR-171" value="25" style="rounded=0;whiteSpace=wrap;html=1;" parent="1" vertex="1">
          <mxGeometry x="420" y="-20" width="20" height="20" as="geometry" />
        </mxCell>
        <mxCell id="zuDydmJTWH6acEpoQrSR-172" value="20" style="rounded=0;whiteSpace=wrap;html=1;fillColor=#f8cecc;strokeColor=#b85450;" parent="1" vertex="1">
          <mxGeometry x="440" y="-20" width="20" height="20" as="geometry" />
        </mxCell>
        <mxCell id="zuDydmJTWH6acEpoQrSR-173" value="20" style="rounded=0;whiteSpace=wrap;html=1;fillColor=#f8cecc;strokeColor=#b85450;" parent="1" vertex="1">
          <mxGeometry x="460" y="-20" width="20" height="20" as="geometry" />
        </mxCell>
        <mxCell id="zuDydmJTWH6acEpoQrSR-174" value="25" style="rounded=0;whiteSpace=wrap;html=1;" parent="1" vertex="1">
          <mxGeometry x="480" y="-20" width="20" height="20" as="geometry" />
        </mxCell>
        <mxCell id="zuDydmJTWH6acEpoQrSR-175" value="25" style="rounded=0;whiteSpace=wrap;html=1;" parent="1" vertex="1">
          <mxGeometry x="500" y="-20" width="20" height="20" as="geometry" />
        </mxCell>
        <mxCell id="zuDydmJTWH6acEpoQrSR-176" value="25" style="rounded=0;whiteSpace=wrap;html=1;" parent="1" vertex="1">
          <mxGeometry x="520" y="-20" width="20" height="20" as="geometry" />
        </mxCell>
        <mxCell id="zuDydmJTWH6acEpoQrSR-177" value="sex" style="rounded=0;whiteSpace=wrap;html=1;" parent="1" vertex="1">
          <mxGeometry x="300" y="-40" width="40" height="20" as="geometry" />
        </mxCell>
        <mxCell id="zuDydmJTWH6acEpoQrSR-178" value="f" style="rounded=0;whiteSpace=wrap;html=1;" parent="1" vertex="1">
          <mxGeometry x="340" y="-40" width="20" height="20" as="geometry" />
        </mxCell>
        <mxCell id="zuDydmJTWH6acEpoQrSR-179" value="f" style="rounded=0;whiteSpace=wrap;html=1;" parent="1" vertex="1">
          <mxGeometry x="360" y="-40" width="20" height="20" as="geometry" />
        </mxCell>
        <mxCell id="zuDydmJTWH6acEpoQrSR-180" value="f" style="rounded=0;whiteSpace=wrap;html=1;" parent="1" vertex="1">
          <mxGeometry x="380" y="-40" width="20" height="20" as="geometry" />
        </mxCell>
        <mxCell id="zuDydmJTWH6acEpoQrSR-181" value="f" style="rounded=0;whiteSpace=wrap;html=1;" parent="1" vertex="1">
          <mxGeometry x="400" y="-40" width="20" height="20" as="geometry" />
        </mxCell>
        <mxCell id="zuDydmJTWH6acEpoQrSR-182" value="f" style="rounded=0;whiteSpace=wrap;html=1;" parent="1" vertex="1">
          <mxGeometry x="420" y="-40" width="20" height="20" as="geometry" />
        </mxCell>
        <mxCell id="zuDydmJTWH6acEpoQrSR-183" value="m" style="rounded=0;whiteSpace=wrap;html=1;" parent="1" vertex="1">
          <mxGeometry x="440" y="-40" width="20" height="20" as="geometry" />
        </mxCell>
        <mxCell id="zuDydmJTWH6acEpoQrSR-184" value="m" style="rounded=0;whiteSpace=wrap;html=1;" parent="1" vertex="1">
          <mxGeometry x="460" y="-40" width="20" height="20" as="geometry" />
        </mxCell>
        <mxCell id="zuDydmJTWH6acEpoQrSR-185" value="m" style="rounded=0;whiteSpace=wrap;html=1;" parent="1" vertex="1">
          <mxGeometry x="480" y="-40" width="20" height="20" as="geometry" />
        </mxCell>
        <mxCell id="zuDydmJTWH6acEpoQrSR-186" value="m" style="rounded=0;whiteSpace=wrap;html=1;" parent="1" vertex="1">
          <mxGeometry x="500" y="-40" width="20" height="20" as="geometry" />
        </mxCell>
        <mxCell id="zuDydmJTWH6acEpoQrSR-187" value="m" style="rounded=0;whiteSpace=wrap;html=1;" parent="1" vertex="1">
          <mxGeometry x="520" y="-40" width="20" height="20" as="geometry" />
        </mxCell>
        <mxCell id="zuDydmJTWH6acEpoQrSR-188" value="name" style="rounded=0;whiteSpace=wrap;html=1;" parent="1" vertex="1">
          <mxGeometry x="300" width="40" height="20" as="geometry" />
        </mxCell>
        <mxCell id="zuDydmJTWH6acEpoQrSR-189" value="z1" style="rounded=0;whiteSpace=wrap;html=1;" parent="1" vertex="1">
          <mxGeometry x="340" width="20" height="20" as="geometry" />
        </mxCell>
        <mxCell id="zuDydmJTWH6acEpoQrSR-190" value="z2" style="rounded=0;whiteSpace=wrap;html=1;" parent="1" vertex="1">
          <mxGeometry x="360" width="20" height="20" as="geometry" />
        </mxCell>
        <mxCell id="zuDydmJTWH6acEpoQrSR-191" value="z2" style="rounded=0;whiteSpace=wrap;html=1;" parent="1" vertex="1">
          <mxGeometry x="380" width="20" height="20" as="geometry" />
        </mxCell>
        <mxCell id="zuDydmJTWH6acEpoQrSR-192" value="z3" style="rounded=0;whiteSpace=wrap;html=1;" parent="1" vertex="1">
          <mxGeometry x="400" width="20" height="20" as="geometry" />
        </mxCell>
        <mxCell id="zuDydmJTWH6acEpoQrSR-193" value="z3" style="rounded=0;whiteSpace=wrap;html=1;" parent="1" vertex="1">
          <mxGeometry x="420" width="20" height="20" as="geometry" />
        </mxCell>
        <mxCell id="zuDydmJTWH6acEpoQrSR-194" value="z1" style="rounded=0;whiteSpace=wrap;html=1;" parent="1" vertex="1">
          <mxGeometry x="440" width="20" height="20" as="geometry" />
        </mxCell>
        <mxCell id="zuDydmJTWH6acEpoQrSR-195" value="z2" style="rounded=0;whiteSpace=wrap;html=1;" parent="1" vertex="1">
          <mxGeometry x="460" width="20" height="20" as="geometry" />
        </mxCell>
        <mxCell id="zuDydmJTWH6acEpoQrSR-196" value="z2" style="rounded=0;whiteSpace=wrap;html=1;" parent="1" vertex="1">
          <mxGeometry x="480" width="20" height="20" as="geometry" />
        </mxCell>
        <mxCell id="zuDydmJTWH6acEpoQrSR-197" value="z3" style="rounded=0;whiteSpace=wrap;html=1;" parent="1" vertex="1">
          <mxGeometry x="500" width="20" height="20" as="geometry" />
        </mxCell>
        <mxCell id="zuDydmJTWH6acEpoQrSR-198" value="z3" style="rounded=0;whiteSpace=wrap;html=1;" parent="1" vertex="1">
          <mxGeometry x="520" width="20" height="20" as="geometry" />
        </mxCell>
        <mxCell id="leX_9AzpuB4AGnlNnbfJ-1" value="id" style="rounded=0;whiteSpace=wrap;html=1;" vertex="1" parent="1">
          <mxGeometry x="300" y="140" width="40" height="20" as="geometry" />
        </mxCell>
        <mxCell id="leX_9AzpuB4AGnlNnbfJ-2" value="1" style="rounded=0;whiteSpace=wrap;html=1;" vertex="1" parent="1">
          <mxGeometry x="340" y="140" width="20" height="20" as="geometry" />
        </mxCell>
        <mxCell id="leX_9AzpuB4AGnlNnbfJ-3" value="2" style="rounded=0;whiteSpace=wrap;html=1;" vertex="1" parent="1">
          <mxGeometry x="360" y="140" width="20" height="20" as="geometry" />
        </mxCell>
        <mxCell id="leX_9AzpuB4AGnlNnbfJ-4" value="3" style="rounded=0;whiteSpace=wrap;html=1;" vertex="1" parent="1">
          <mxGeometry x="380" y="140" width="20" height="20" as="geometry" />
        </mxCell>
        <mxCell id="leX_9AzpuB4AGnlNnbfJ-5" value="4" style="rounded=0;whiteSpace=wrap;html=1;" vertex="1" parent="1">
          <mxGeometry x="400" y="140" width="20" height="20" as="geometry" />
        </mxCell>
        <mxCell id="leX_9AzpuB4AGnlNnbfJ-6" value="5" style="rounded=0;whiteSpace=wrap;html=1;" vertex="1" parent="1">
          <mxGeometry x="420" y="140" width="20" height="20" as="geometry" />
        </mxCell>
        <mxCell id="leX_9AzpuB4AGnlNnbfJ-7" value="6" style="rounded=0;whiteSpace=wrap;html=1;" vertex="1" parent="1">
          <mxGeometry x="440" y="140" width="20" height="20" as="geometry" />
        </mxCell>
        <mxCell id="leX_9AzpuB4AGnlNnbfJ-8" value="7" style="rounded=0;whiteSpace=wrap;html=1;" vertex="1" parent="1">
          <mxGeometry x="460" y="140" width="20" height="20" as="geometry" />
        </mxCell>
        <mxCell id="leX_9AzpuB4AGnlNnbfJ-9" value="8" style="rounded=0;whiteSpace=wrap;html=1;" vertex="1" parent="1">
          <mxGeometry x="480" y="140" width="20" height="20" as="geometry" />
        </mxCell>
        <mxCell id="leX_9AzpuB4AGnlNnbfJ-10" value="9" style="rounded=0;whiteSpace=wrap;html=1;" vertex="1" parent="1">
          <mxGeometry x="500" y="140" width="20" height="20" as="geometry" />
        </mxCell>
        <mxCell id="leX_9AzpuB4AGnlNnbfJ-11" value="10" style="rounded=0;whiteSpace=wrap;html=1;" vertex="1" parent="1">
          <mxGeometry x="520" y="140" width="20" height="20" as="geometry" />
        </mxCell>
        <mxCell id="leX_9AzpuB4AGnlNnbfJ-12" value="age" style="rounded=0;whiteSpace=wrap;html=1;" vertex="1" parent="1">
          <mxGeometry x="300" y="100" width="40" height="20" as="geometry" />
        </mxCell>
        <mxCell id="leX_9AzpuB4AGnlNnbfJ-13" value="20" style="rounded=0;whiteSpace=wrap;html=1;fillColor=#f8cecc;strokeColor=#b85450;" vertex="1" parent="1">
          <mxGeometry x="340" y="100" width="20" height="20" as="geometry" />
        </mxCell>
        <mxCell id="leX_9AzpuB4AGnlNnbfJ-14" value="20" style="rounded=0;whiteSpace=wrap;html=1;" vertex="1" parent="1">
          <mxGeometry x="360" y="100" width="20" height="20" as="geometry" />
        </mxCell>
        <mxCell id="leX_9AzpuB4AGnlNnbfJ-15" value="25" style="rounded=0;whiteSpace=wrap;html=1;fillColor=#f8cecc;strokeColor=#b85450;" vertex="1" parent="1">
          <mxGeometry x="380" y="100" width="20" height="20" as="geometry" />
        </mxCell>
        <mxCell id="leX_9AzpuB4AGnlNnbfJ-16" value="25" style="rounded=0;whiteSpace=wrap;html=1;" vertex="1" parent="1">
          <mxGeometry x="400" y="100" width="20" height="20" as="geometry" />
        </mxCell>
        <mxCell id="leX_9AzpuB4AGnlNnbfJ-17" value="25" style="rounded=0;whiteSpace=wrap;html=1;" vertex="1" parent="1">
          <mxGeometry x="420" y="100" width="20" height="20" as="geometry" />
        </mxCell>
        <mxCell id="leX_9AzpuB4AGnlNnbfJ-18" value="20" style="rounded=0;whiteSpace=wrap;html=1;fillColor=#f8cecc;strokeColor=#b85450;" vertex="1" parent="1">
          <mxGeometry x="440" y="100" width="20" height="20" as="geometry" />
        </mxCell>
        <mxCell id="leX_9AzpuB4AGnlNnbfJ-19" value="20" style="rounded=0;whiteSpace=wrap;html=1;" vertex="1" parent="1">
          <mxGeometry x="460" y="100" width="20" height="20" as="geometry" />
        </mxCell>
        <mxCell id="leX_9AzpuB4AGnlNnbfJ-20" value="25" style="rounded=0;whiteSpace=wrap;html=1;fillColor=#f8cecc;strokeColor=#b85450;" vertex="1" parent="1">
          <mxGeometry x="480" y="100" width="20" height="20" as="geometry" />
        </mxCell>
        <mxCell id="leX_9AzpuB4AGnlNnbfJ-21" value="25" style="rounded=0;whiteSpace=wrap;html=1;" vertex="1" parent="1">
          <mxGeometry x="500" y="100" width="20" height="20" as="geometry" />
        </mxCell>
        <mxCell id="leX_9AzpuB4AGnlNnbfJ-22" value="25" style="rounded=0;whiteSpace=wrap;html=1;" vertex="1" parent="1">
          <mxGeometry x="520" y="100" width="20" height="20" as="geometry" />
        </mxCell>
        <mxCell id="leX_9AzpuB4AGnlNnbfJ-23" value="sex" style="rounded=0;whiteSpace=wrap;html=1;" vertex="1" parent="1">
          <mxGeometry x="300" y="80" width="40" height="20" as="geometry" />
        </mxCell>
        <mxCell id="leX_9AzpuB4AGnlNnbfJ-24" value="f" style="rounded=0;whiteSpace=wrap;html=1;fillColor=#f8cecc;strokeColor=#b85450;" vertex="1" parent="1">
          <mxGeometry x="340" y="80" width="20" height="20" as="geometry" />
        </mxCell>
        <mxCell id="leX_9AzpuB4AGnlNnbfJ-25" value="f" style="rounded=0;whiteSpace=wrap;html=1;" vertex="1" parent="1">
          <mxGeometry x="360" y="80" width="20" height="20" as="geometry" />
        </mxCell>
        <mxCell id="leX_9AzpuB4AGnlNnbfJ-26" value="f" style="rounded=0;whiteSpace=wrap;html=1;fillColor=#f8cecc;strokeColor=#b85450;" vertex="1" parent="1">
          <mxGeometry x="380" y="80" width="20" height="20" as="geometry" />
        </mxCell>
        <mxCell id="leX_9AzpuB4AGnlNnbfJ-27" value="f" style="rounded=0;whiteSpace=wrap;html=1;" vertex="1" parent="1">
          <mxGeometry x="400" y="80" width="20" height="20" as="geometry" />
        </mxCell>
        <mxCell id="leX_9AzpuB4AGnlNnbfJ-28" value="f" style="rounded=0;whiteSpace=wrap;html=1;" vertex="1" parent="1">
          <mxGeometry x="420" y="80" width="20" height="20" as="geometry" />
        </mxCell>
        <mxCell id="leX_9AzpuB4AGnlNnbfJ-29" value="m" style="rounded=0;whiteSpace=wrap;html=1;fillColor=#f8cecc;strokeColor=#b85450;" vertex="1" parent="1">
          <mxGeometry x="440" y="80" width="20" height="20" as="geometry" />
        </mxCell>
        <mxCell id="leX_9AzpuB4AGnlNnbfJ-30" value="m" style="rounded=0;whiteSpace=wrap;html=1;" vertex="1" parent="1">
          <mxGeometry x="460" y="80" width="20" height="20" as="geometry" />
        </mxCell>
        <mxCell id="leX_9AzpuB4AGnlNnbfJ-31" value="m" style="rounded=0;whiteSpace=wrap;html=1;fillColor=#f8cecc;strokeColor=#b85450;" vertex="1" parent="1">
          <mxGeometry x="480" y="80" width="20" height="20" as="geometry" />
        </mxCell>
        <mxCell id="leX_9AzpuB4AGnlNnbfJ-32" value="m" style="rounded=0;whiteSpace=wrap;html=1;" vertex="1" parent="1">
          <mxGeometry x="500" y="80" width="20" height="20" as="geometry" />
        </mxCell>
        <mxCell id="leX_9AzpuB4AGnlNnbfJ-33" value="m" style="rounded=0;whiteSpace=wrap;html=1;" vertex="1" parent="1">
          <mxGeometry x="520" y="80" width="20" height="20" as="geometry" />
        </mxCell>
        <mxCell id="leX_9AzpuB4AGnlNnbfJ-34" value="name" style="rounded=0;whiteSpace=wrap;html=1;" vertex="1" parent="1">
          <mxGeometry x="300" y="120" width="40" height="20" as="geometry" />
        </mxCell>
        <mxCell id="leX_9AzpuB4AGnlNnbfJ-35" value="z1" style="rounded=0;whiteSpace=wrap;html=1;fillColor=#f8cecc;strokeColor=#b85450;" vertex="1" parent="1">
          <mxGeometry x="340" y="120" width="20" height="20" as="geometry" />
        </mxCell>
        <mxCell id="leX_9AzpuB4AGnlNnbfJ-36" value="z2" style="rounded=0;whiteSpace=wrap;html=1;" vertex="1" parent="1">
          <mxGeometry x="360" y="120" width="20" height="20" as="geometry" />
        </mxCell>
        <mxCell id="leX_9AzpuB4AGnlNnbfJ-37" value="z2" style="rounded=0;whiteSpace=wrap;html=1;" vertex="1" parent="1">
          <mxGeometry x="380" y="120" width="20" height="20" as="geometry" />
        </mxCell>
        <mxCell id="leX_9AzpuB4AGnlNnbfJ-38" value="z3" style="rounded=0;whiteSpace=wrap;html=1;" vertex="1" parent="1">
          <mxGeometry x="400" y="120" width="20" height="20" as="geometry" />
        </mxCell>
        <mxCell id="leX_9AzpuB4AGnlNnbfJ-39" value="z3" style="rounded=0;whiteSpace=wrap;html=1;" vertex="1" parent="1">
          <mxGeometry x="420" y="120" width="20" height="20" as="geometry" />
        </mxCell>
        <mxCell id="leX_9AzpuB4AGnlNnbfJ-40" value="z1" style="rounded=0;whiteSpace=wrap;html=1;fillColor=#f8cecc;strokeColor=#b85450;" vertex="1" parent="1">
          <mxGeometry x="440" y="120" width="20" height="20" as="geometry" />
        </mxCell>
        <mxCell id="leX_9AzpuB4AGnlNnbfJ-41" value="z2" style="rounded=0;whiteSpace=wrap;html=1;" vertex="1" parent="1">
          <mxGeometry x="460" y="120" width="20" height="20" as="geometry" />
        </mxCell>
        <mxCell id="leX_9AzpuB4AGnlNnbfJ-42" value="z2" style="rounded=0;whiteSpace=wrap;html=1;" vertex="1" parent="1">
          <mxGeometry x="480" y="120" width="20" height="20" as="geometry" />
        </mxCell>
        <mxCell id="leX_9AzpuB4AGnlNnbfJ-43" value="z3" style="rounded=0;whiteSpace=wrap;html=1;" vertex="1" parent="1">
          <mxGeometry x="500" y="120" width="20" height="20" as="geometry" />
        </mxCell>
        <mxCell id="leX_9AzpuB4AGnlNnbfJ-44" value="z3" style="rounded=0;whiteSpace=wrap;html=1;" vertex="1" parent="1">
          <mxGeometry x="520" y="120" width="20" height="20" as="geometry" />
        </mxCell>
        <mxCell id="leX_9AzpuB4AGnlNnbfJ-45" value="id" style="rounded=0;whiteSpace=wrap;html=1;" vertex="1" parent="1">
          <mxGeometry x="300" y="260" width="40" height="20" as="geometry" />
        </mxCell>
        <mxCell id="leX_9AzpuB4AGnlNnbfJ-46" value="1" style="rounded=0;whiteSpace=wrap;html=1;" vertex="1" parent="1">
          <mxGeometry x="340" y="260" width="20" height="20" as="geometry" />
        </mxCell>
        <mxCell id="leX_9AzpuB4AGnlNnbfJ-47" value="2" style="rounded=0;whiteSpace=wrap;html=1;" vertex="1" parent="1">
          <mxGeometry x="360" y="260" width="20" height="20" as="geometry" />
        </mxCell>
        <mxCell id="leX_9AzpuB4AGnlNnbfJ-48" value="3" style="rounded=0;whiteSpace=wrap;html=1;" vertex="1" parent="1">
          <mxGeometry x="380" y="260" width="20" height="20" as="geometry" />
        </mxCell>
        <mxCell id="leX_9AzpuB4AGnlNnbfJ-49" value="4" style="rounded=0;whiteSpace=wrap;html=1;" vertex="1" parent="1">
          <mxGeometry x="400" y="260" width="20" height="20" as="geometry" />
        </mxCell>
        <mxCell id="leX_9AzpuB4AGnlNnbfJ-50" value="5" style="rounded=0;whiteSpace=wrap;html=1;" vertex="1" parent="1">
          <mxGeometry x="420" y="260" width="20" height="20" as="geometry" />
        </mxCell>
        <mxCell id="leX_9AzpuB4AGnlNnbfJ-51" value="6" style="rounded=0;whiteSpace=wrap;html=1;" vertex="1" parent="1">
          <mxGeometry x="440" y="260" width="20" height="20" as="geometry" />
        </mxCell>
        <mxCell id="leX_9AzpuB4AGnlNnbfJ-52" value="7" style="rounded=0;whiteSpace=wrap;html=1;" vertex="1" parent="1">
          <mxGeometry x="460" y="260" width="20" height="20" as="geometry" />
        </mxCell>
        <mxCell id="leX_9AzpuB4AGnlNnbfJ-53" value="8" style="rounded=0;whiteSpace=wrap;html=1;" vertex="1" parent="1">
          <mxGeometry x="480" y="260" width="20" height="20" as="geometry" />
        </mxCell>
        <mxCell id="leX_9AzpuB4AGnlNnbfJ-54" value="9" style="rounded=0;whiteSpace=wrap;html=1;" vertex="1" parent="1">
          <mxGeometry x="500" y="260" width="20" height="20" as="geometry" />
        </mxCell>
        <mxCell id="leX_9AzpuB4AGnlNnbfJ-55" value="10" style="rounded=0;whiteSpace=wrap;html=1;" vertex="1" parent="1">
          <mxGeometry x="520" y="260" width="20" height="20" as="geometry" />
        </mxCell>
        <mxCell id="leX_9AzpuB4AGnlNnbfJ-56" value="age" style="rounded=0;whiteSpace=wrap;html=1;" vertex="1" parent="1">
          <mxGeometry x="300" y="220" width="40" height="20" as="geometry" />
        </mxCell>
        <mxCell id="leX_9AzpuB4AGnlNnbfJ-57" value="20" style="rounded=0;whiteSpace=wrap;html=1;fillColor=#f8cecc;strokeColor=#b85450;" vertex="1" parent="1">
          <mxGeometry x="340" y="220" width="20" height="20" as="geometry" />
        </mxCell>
        <mxCell id="leX_9AzpuB4AGnlNnbfJ-58" value="20" style="rounded=0;whiteSpace=wrap;html=1;fillColor=#f8cecc;strokeColor=#b85450;" vertex="1" parent="1">
          <mxGeometry x="360" y="220" width="20" height="20" as="geometry" />
        </mxCell>
        <mxCell id="leX_9AzpuB4AGnlNnbfJ-59" value="25" style="rounded=0;whiteSpace=wrap;html=1;fillColor=#f8cecc;strokeColor=#b85450;" vertex="1" parent="1">
          <mxGeometry x="380" y="220" width="20" height="20" as="geometry" />
        </mxCell>
        <mxCell id="leX_9AzpuB4AGnlNnbfJ-60" value="25" style="rounded=0;whiteSpace=wrap;html=1;fillColor=#f8cecc;strokeColor=#b85450;" vertex="1" parent="1">
          <mxGeometry x="400" y="220" width="20" height="20" as="geometry" />
        </mxCell>
        <mxCell id="leX_9AzpuB4AGnlNnbfJ-61" value="25" style="rounded=0;whiteSpace=wrap;html=1;" vertex="1" parent="1">
          <mxGeometry x="420" y="220" width="20" height="20" as="geometry" />
        </mxCell>
        <mxCell id="leX_9AzpuB4AGnlNnbfJ-62" value="20" style="rounded=0;whiteSpace=wrap;html=1;" vertex="1" parent="1">
          <mxGeometry x="440" y="220" width="20" height="20" as="geometry" />
        </mxCell>
        <mxCell id="leX_9AzpuB4AGnlNnbfJ-63" value="20" style="rounded=0;whiteSpace=wrap;html=1;" vertex="1" parent="1">
          <mxGeometry x="460" y="220" width="20" height="20" as="geometry" />
        </mxCell>
        <mxCell id="leX_9AzpuB4AGnlNnbfJ-64" value="25" style="rounded=0;whiteSpace=wrap;html=1;" vertex="1" parent="1">
          <mxGeometry x="480" y="220" width="20" height="20" as="geometry" />
        </mxCell>
        <mxCell id="leX_9AzpuB4AGnlNnbfJ-65" value="25" style="rounded=0;whiteSpace=wrap;html=1;" vertex="1" parent="1">
          <mxGeometry x="500" y="220" width="20" height="20" as="geometry" />
        </mxCell>
        <mxCell id="leX_9AzpuB4AGnlNnbfJ-66" value="25" style="rounded=0;whiteSpace=wrap;html=1;" vertex="1" parent="1">
          <mxGeometry x="520" y="220" width="20" height="20" as="geometry" />
        </mxCell>
        <mxCell id="leX_9AzpuB4AGnlNnbfJ-67" value="sex" style="rounded=0;whiteSpace=wrap;html=1;" vertex="1" parent="1">
          <mxGeometry x="300" y="200" width="40" height="20" as="geometry" />
        </mxCell>
        <mxCell id="leX_9AzpuB4AGnlNnbfJ-68" value="f" style="rounded=0;whiteSpace=wrap;html=1;fillColor=#f8cecc;strokeColor=#b85450;" vertex="1" parent="1">
          <mxGeometry x="340" y="200" width="20" height="20" as="geometry" />
        </mxCell>
        <mxCell id="leX_9AzpuB4AGnlNnbfJ-69" value="f" style="rounded=0;whiteSpace=wrap;html=1;fillColor=#f8cecc;strokeColor=#b85450;" vertex="1" parent="1">
          <mxGeometry x="360" y="200" width="20" height="20" as="geometry" />
        </mxCell>
        <mxCell id="leX_9AzpuB4AGnlNnbfJ-70" value="f" style="rounded=0;whiteSpace=wrap;html=1;fillColor=#f8cecc;strokeColor=#b85450;" vertex="1" parent="1">
          <mxGeometry x="380" y="200" width="20" height="20" as="geometry" />
        </mxCell>
        <mxCell id="leX_9AzpuB4AGnlNnbfJ-71" value="f" style="rounded=0;whiteSpace=wrap;html=1;fillColor=#f8cecc;strokeColor=#b85450;" vertex="1" parent="1">
          <mxGeometry x="400" y="200" width="20" height="20" as="geometry" />
        </mxCell>
        <mxCell id="leX_9AzpuB4AGnlNnbfJ-72" value="f" style="rounded=0;whiteSpace=wrap;html=1;fillColor=#f8cecc;strokeColor=#b85450;" vertex="1" parent="1">
          <mxGeometry x="420" y="200" width="20" height="20" as="geometry" />
        </mxCell>
        <mxCell id="leX_9AzpuB4AGnlNnbfJ-73" value="m" style="rounded=0;whiteSpace=wrap;html=1;" vertex="1" parent="1">
          <mxGeometry x="440" y="200" width="20" height="20" as="geometry" />
        </mxCell>
        <mxCell id="leX_9AzpuB4AGnlNnbfJ-74" value="m" style="rounded=0;whiteSpace=wrap;html=1;" vertex="1" parent="1">
          <mxGeometry x="460" y="200" width="20" height="20" as="geometry" />
        </mxCell>
        <mxCell id="leX_9AzpuB4AGnlNnbfJ-75" value="m" style="rounded=0;whiteSpace=wrap;html=1;" vertex="1" parent="1">
          <mxGeometry x="480" y="200" width="20" height="20" as="geometry" />
        </mxCell>
        <mxCell id="leX_9AzpuB4AGnlNnbfJ-76" value="m" style="rounded=0;whiteSpace=wrap;html=1;" vertex="1" parent="1">
          <mxGeometry x="500" y="200" width="20" height="20" as="geometry" />
        </mxCell>
        <mxCell id="leX_9AzpuB4AGnlNnbfJ-77" value="m" style="rounded=0;whiteSpace=wrap;html=1;" vertex="1" parent="1">
          <mxGeometry x="520" y="200" width="20" height="20" as="geometry" />
        </mxCell>
        <mxCell id="leX_9AzpuB4AGnlNnbfJ-78" value="name" style="rounded=0;whiteSpace=wrap;html=1;" vertex="1" parent="1">
          <mxGeometry x="300" y="240" width="40" height="20" as="geometry" />
        </mxCell>
        <mxCell id="leX_9AzpuB4AGnlNnbfJ-79" value="z1" style="rounded=0;whiteSpace=wrap;html=1;fillColor=#f8cecc;strokeColor=#b85450;" vertex="1" parent="1">
          <mxGeometry x="340" y="240" width="20" height="20" as="geometry" />
        </mxCell>
        <mxCell id="leX_9AzpuB4AGnlNnbfJ-80" value="z2" style="rounded=0;whiteSpace=wrap;html=1;fillColor=#f8cecc;strokeColor=#b85450;" vertex="1" parent="1">
          <mxGeometry x="360" y="240" width="20" height="20" as="geometry" />
        </mxCell>
        <mxCell id="leX_9AzpuB4AGnlNnbfJ-81" value="z2" style="rounded=0;whiteSpace=wrap;html=1;fillColor=#f8cecc;strokeColor=#b85450;" vertex="1" parent="1">
          <mxGeometry x="380" y="240" width="20" height="20" as="geometry" />
        </mxCell>
        <mxCell id="leX_9AzpuB4AGnlNnbfJ-82" value="z3" style="rounded=0;whiteSpace=wrap;html=1;fillColor=#f8cecc;strokeColor=#b85450;" vertex="1" parent="1">
          <mxGeometry x="400" y="240" width="20" height="20" as="geometry" />
        </mxCell>
        <mxCell id="leX_9AzpuB4AGnlNnbfJ-83" value="z3" style="rounded=0;whiteSpace=wrap;html=1;" vertex="1" parent="1">
          <mxGeometry x="420" y="240" width="20" height="20" as="geometry" />
        </mxCell>
        <mxCell id="leX_9AzpuB4AGnlNnbfJ-84" value="z1" style="rounded=0;whiteSpace=wrap;html=1;" vertex="1" parent="1">
          <mxGeometry x="440" y="240" width="20" height="20" as="geometry" />
        </mxCell>
        <mxCell id="leX_9AzpuB4AGnlNnbfJ-85" value="z2" style="rounded=0;whiteSpace=wrap;html=1;" vertex="1" parent="1">
          <mxGeometry x="460" y="240" width="20" height="20" as="geometry" />
        </mxCell>
        <mxCell id="leX_9AzpuB4AGnlNnbfJ-86" value="z2" style="rounded=0;whiteSpace=wrap;html=1;" vertex="1" parent="1">
          <mxGeometry x="480" y="240" width="20" height="20" as="geometry" />
        </mxCell>
        <mxCell id="leX_9AzpuB4AGnlNnbfJ-87" value="z3" style="rounded=0;whiteSpace=wrap;html=1;" vertex="1" parent="1">
          <mxGeometry x="500" y="240" width="20" height="20" as="geometry" />
        </mxCell>
        <mxCell id="leX_9AzpuB4AGnlNnbfJ-88" value="z3" style="rounded=0;whiteSpace=wrap;html=1;" vertex="1" parent="1">
          <mxGeometry x="520" y="240" width="20" height="20" as="geometry" />
        </mxCell>
      </root>
    </mxGraphModel>
  </diagram>
</mxfile>
